{
  "accessors": [
    {
      "bufferView": 2,
      "componentType": 5126,
      "count": 359,
      "max": [
        13.105498313903809,
        7.5832200050354,
        15.78203010559082
      ],
      "min": [
        -13.166792869567871,
        -0.04540300369262695,
        -3.903740406036377
      ],
      "type": "VEC3"
    },
    {
      "bufferView": 2,
      "byteOffset": 4308,
      "componentType": 5126,
      "count": 359,
      "max": [
        1.0,
        1.0,
        1.0
      ],
      "min": [
        -1.0,
        -1.0,
        -1.0
      ],
      "type": "VEC3"
    },
    {
      "bufferView": 1,
      "componentType": 5126,
      "count": 359,
      "max": [
        1.0,
        1.0
      ],
      "min": [
        0.0,
        0.0
      ],
      "type": "VEC2"
    },
    {
      "bufferView": 0,
      "componentType": 5125,
      "count": 666,
      "type": "SCALAR"
    },
    {
      "bufferView": 2,
      "byteOffset": 8616,
      "componentType": 5126,
      "count": 672,
      "max": [
        9.384048461914063,
        4.454135894775391,
        -3.8517494201660156
      ],
      "min": [
        -9.445343017578125,
        -0.04540300369262695,
        -3.884813070297241
      ],
      "type": "VEC3"
    },
    {
      "bufferView": 2,
      "byteOffset": 16680,
      "componentType": 5126,
      "count": 672,
      "max": [
        0.9484766125679016,
        0.9645305275917053,
        0.4059564173221588
      ],
      "min": [
        -0.9484766125679016,
        -0.964531421661377,
        0.263968288898468
      ],
      "type": "VEC3"
    },
    {
      "bufferView": 1,
      "byteOffset": 2872,
      "componentType": 5126,
      "count": 672,
      "max": [
        1.0,
        1.0
      ],
      "min": [
        0.0,
        0.0
      ],
      "type": "VEC2"
    },
    {
      "bufferView": 0,
      "byteOffset": 2664,
      "componentType": 5125,
      "count": 1008,
      "type": "SCALAR"
    },
    {
      "bufferView": 2,
      "byteOffset": 24744,
      "componentType": 5126,
      "count": 36,
      "max": [
        9.366128921508789,
        0.03927183151245117,
        15.78203010559082
      ],
      "min": [
        -9.427423477172852,
        0.03927183151245117,
        -3.903740406036377
      ],
      "type": "VEC3"
    },
    {
      "bufferView": 2,
      "byteOffset": 25176,
      "componentType": 5126,
      "count": 36,
      "max": [
        0.0,
        1.0,
        -0.0
      ],
      "min": [
        0.0,
        1.0,
        -0.0
      ],
      "type": "VEC3"
    },
    {
      "bufferView": 1,
      "byteOffset": 8248,
      "componentType": 5126,
      "count": 36,
      "max": [
        1.0191923379898071,
        1.9288697242736816
      ],
      "min": [
        -0.3449183702468872,
        -0.9288699626922607
      ],
      "type": "VEC2"
    },
    {
      "bufferView": 0,
      "byteOffset": 6696,
      "componentType": 5125,
      "count": 144,
      "type": "SCALAR"
    },
    {
      "bufferView": 2,
      "byteOffset": 25608,
      "componentType": 5126,
      "count": 48,
      "max": [
        9.371437072753906,
        2.866565227508545,
        5.558938980102539
      ],
      "min": [
        -9.432731628417969,
        0.5500701665878296,
        -2.948657989501953
      ],
      "type": "VEC3"
    },
    {
      "bufferView": 2,
      "byteOffset": 26184,
      "componentType": 5126,
      "count": 48,
      "max": [
        1.0,
        1.0,
        1.0
      ],
      "min": [
        -1.0,
        -1.0,
        -1.0
      ],
      "type": "VEC3"
    },
    {
      "bufferView": 1,
      "byteOffset": 8536,
      "componentType": 5126,
      "count": 48,
      "max": [
        0.875,
        1.0
      ],
      "min": [
        0.125,
        0.0
      ],
      "type": "VEC2"
    },
    {
      "bufferView": 0,
      "byteOffset": 7272,
      "componentType": 5125,
      "count": 72,
      "type": "SCALAR"
    },
    {
      "bufferView": 2,
      "byteOffset": 26760,
      "componentType": 5126,
      "count": 1249,
      "max": [
        6.373383045196533,
        3.4240636825561523,
        5.123154640197754
      ],
      "min": [
        -6.434677600860596,
        3.338090419769287,
        -2.4664809703826904
      ],
      "type": "VEC3"
    },
    {
      "bufferView": 2,
      "byteOffset": 41748,
      "componentType": 5126,
      "count": 1249,
      "max": [
        1.0,
        0.0,
        1.0
      ],
      "min": [
        -1.0,
        -1.0,
        -1.0
      ],
      "type": "VEC3"
    },
    {
      "bufferView": 1,
      "byteOffset": 8920,
      "componentType": 5126,
      "count": 1249,
      "max": [
        1.0,
        1.0
      ],
      "min": [
        0.0,
        0.0
      ],
      "type": "VEC2"
    },
    {
      "bufferView": 0,
      "byteOffset": 7560,
      "componentType": 5125,
      "count": 3792,
      "type": "SCALAR"
    },
    {
      "bufferView": 2,
      "byteOffset": 56736,
      "componentType": 5126,
      "count": 256,
      "max": [
        6.3473687171936035,
        3.338090658187866,
        5.096476078033447
      ],
      "min": [
        -6.408663272857666,
        3.338090658187866,
        -2.4398021697998047
      ],
      "type": "VEC3"
    },
    {
      "bufferView": 2,
      "byteOffset": 59808,
      "componentType": 5126,
      "count": 256,
      "max": [
        -0.0,
        -1.0,
        -0.0
      ],
      "min": [
        -0.0,
        -1.0,
        -0.0
      ],
      "type": "VEC3"
    },
    {
      "bufferView": 1,
      "byteOffset": 18912,
      "componentType": 5126,
      "count": 256,
      "max": [
        1.0,
        1.0
      ],
      "min": [
        0.0,
        0.0
      ],
      "type": "VEC2"
    },
    {
      "bufferView": 0,
      "byteOffset": 22728,
      "componentType": 5125,
      "count": 384,
      "type": "SCALAR"
    },
    {
      "bufferView": 2,
      "byteOffset": 62880,
      "componentType": 5126,
      "count": 110,
      "max": [
        6.373383045196533,
        3.4240636825561523,
        5.123154640197754
      ],
      "min": [
        -6.434677600860596,
        3.4240636825561523,
        -2.4664809703826904
      ],
      "type": "VEC3"
    },
    {
      "bufferView": 2,
      "byteOffset": 64200,
      "componentType": 5126,
      "count": 110,
      "max": [
        8.869446510573198e-09,
        1.0,
        -0.0
      ],
      "min": [
        -5.688678683668513e-08,
        1.0,
        -0.0
      ],
      "type": "VEC3"
    },
    {
      "bufferView": 1,
      "byteOffset": 20960,
      "componentType": 5126,
      "count": 110,
      "max": [
        1.0,
        1.0
      ],
      "min": [
        0.0,
        0.0
      ],
      "type": "VEC2"
    },
    {
      "bufferView": 0,
      "byteOffset": 24264,
      "componentType": 5125,
      "count": 318,
      "type": "SCALAR"
    },
    {
      "bufferView": 2,
      "byteOffset": 65520,
      "componentType": 5126,
      "count": 2560,
      "max": [
        6.1386590003967285,
        4.425347328186035,
        4.87618350982666
      ],
      "min": [
        -6.199953556060791,
        3.4112935066223145,
        -2.171159267425537
      ],
      "type": "VEC3"
    },
    {
      "bufferView": 2,
      "byteOffset": 96240,
      "componentType": 5126,
      "count": 2560,
      "max": [
        0.9240863919258118,
        1.0,
        0.9239423871040344
      ],
      "min": [
        -0.9240863919258118,
        -1.0,
        -0.9239423871040344
      ],
      "type": "VEC3"
    },
    {
      "bufferView": 1,
      "byteOffset": 21840,
      "componentType": 5126,
      "count": 2560,
      "max": [
        1.0,
        1.0
      ],
      "min": [
        0.0,
        0.01000000536441803
      ],
      "type": "VEC2"
    },
    {
      "bufferView": 0,
      "byteOffset": 25536,
      "componentType": 5125,
      "count": 4224,
      "type": "SCALAR"
    },
    {
      "bufferView": 2,
      "byteOffset": 126960,
      "componentType": 5126,
      "count": 43764,
      "max": [
        1.093623161315918,
        6.398348331451416,
        -1.6802183389663696
      ],
      "min": [
        -1.0798888206481934,
        -0.1281299591064453,
        -3.847547769546509
      ],
      "type": "VEC3"
    },
    {
      "bufferView": 2,
      "byteOffset": 652128,
      "componentType": 5126,
      "count": 43764,
      "max": [
        0.0,
        1.0,
        -0.0
      ],
      "min": [
        0.0,
        1.0,
        -0.0
      ],
      "type": "VEC3"
    },
    {
      "bufferView": 1,
      "byteOffset": 42320,
      "componentType": 5126,
      "count": 43764,
      "max": [
        1.0000001192092896,
        1.0000001192092896
      ],
      "min": [
        0.0,
        0.0
      ],
      "type": "VEC2"
    },
    {
      "bufferView": 0,
      "byteOffset": 42432,
      "componentType": 5125,
      "count": 224544,
      "type": "SCALAR"
    },
    {
      "bufferView": 2,
      "byteOffset": 1177296,
      "componentType": 5126,
      "count": 17698,
      "max": [
        1.0368627309799194,
        6.243277549743652,
        -1.70947265625
      ],
      "min": [
        -1.0512995719909668,
        0.17885255813598633,
        -3.802809238433838
      ],
      "type": "VEC3"
    },
    {
      "bufferView": 2,
      "byteOffset": 1389672,
      "componentType": 5126,
      "count": 17698,
      "max": [
        0.0,
        1.0,
        -0.0
      ],
      "min": [
        0.0,
        1.0,
        -0.0
      ],
      "type": "VEC3"
    },
    {
      "bufferView": 1,
      "byteOffset": 392432,
      "componentType": 5126,
      "count": 17698,
      "max": [
        1.5625003576278687,
        1.0000004768371582
      ],
      "min": [
        0.0,
        -2.485854387283325
      ],
      "type": "VEC2"
    },
    {
      "bufferView": 0,
      "byteOffset": 940608,
      "componentType": 5125,
      "count": 97824,
      "type": "SCALAR"
    }
  ],
  "asset": {
    "extras": {
      "author": "matteo.pascale (https://sketchfab.com/matteo.pascale)",
      "license": "CC-BY-4.0 (http://creativecommons.org/licenses/by/4.0/)",
      "source": "https://sketchfab.com/3d-models/garageshowroom-vr-ready-6a9653d1b1f84accb7e28a65b9c77fb9",
      "title": "Garage/Showroom Vr ready"
    },
    "generator": "Sketchfab-13.13.0",
    "version": "2.0"
  },
  "bufferViews": [
    {
      "buffer": 0,
      "byteLength": 1331904,
      "name": "floatBufferViews",
      "target": 34963
    },
    {
      "buffer": 0,
      "byteLength": 534016,
      "byteOffset": 1331904,
      "byteStride": 8,
      "name": "floatBufferViews",
      "target": 34962
    },
    {
      "buffer": 0,
      "byteLength": 1602048,
      "byteOffset": 1865920,
      "byteStride": 12,
      "name": "floatBufferViews",
      "target": 34962
    }
  ],
  "buffers": [
    {
      "byteLength": 3467968,
      "uri": "scene.bin"
    }
  ],
  "materials": [
    {
      "doubleSided": true,
      "name": "material_0",
      "pbrMetallicRoughness": {
        "metallicFactor": 0.0,
        "roughnessFactor": 0.6
      }
    },
    {
      "doubleSided": true,
      "name": "Material.003",
      "pbrMetallicRoughness": {
        "baseColorFactor": [
          0.8,
          0.8,
          0.8,
          1.0
        ],
        "metallicFactor": 0.0,
        "roughnessFactor": 0.357724
      }
    },
    {
      "doubleSided": true,
      "name": "Material.004",
      "pbrMetallicRoughness": {
        "baseColorFactor": [
          0.00719328,
          0.00719328,
          0.00719328,
          1.0
        ],
        "metallicFactor": 0.0,
        "roughnessFactor": 0.5
      }
    },
    {
      "doubleSided": true,
      "name": "Material.007",
      "pbrMetallicRoughness": {
        "metallicFactor": 0.0,
        "roughnessFactor": 0.1
      }
    },
    {
      "doubleSided": true,
      "name": "Material.002",
      "pbrMetallicRoughness": {
        "baseColorFactor": [
          0.8,
          0.8,
          0.8,
          1.0
        ],
        "roughnessFactor": 0.0
      }
    },
    {
      "doubleSided": true,
      "name": "Material",
      "pbrMetallicRoughness": {
        "baseColorFactor": [
          0.0110874,
          0.0110874,
          0.0110874,
          1.0
        ],
        "metallicFactor": 0.0,
        "roughnessFactor": 0.5
      }
    },
    {
      "doubleSided": true,
      "emissiveFactor": [
        1.0,
        1.0,
        1.0
      ],
      "name": "Material.001"
    },
    {
      "doubleSided": true,
      "name": "Material.006",
      "pbrMetallicRoughness": {
        "baseColorFactor": [
          0.01341,
          0.01341,
          0.01341,
          1.0
        ],
        "metallicFactor": 0.0,
        "roughnessFactor": 0.5
      }
    },
    {
      "doubleSided": true,
      "name": "ringhiera",
      "pbrMetallicRoughness": {
        "baseColorFactor": [
          0.0146691,
          0.0146691,
          0.0146691,
          1.0
        ]
      }
    },
    {
      "doubleSided": true,
      "name": "Material.008"
    }
  ],
  "meshes": [
    {
      "name": "Object_0",
      "primitives": [
        {
          "attributes": {
            "NORMAL": 1,
            "POSITION": 0,
            "TEXCOORD_0": 2
          },
          "indices": 3,
          "material": 1,
          "mode": 4
        }
      ]
    },
    {
      "name": "Object_1",
      "primitives": [
        {
          "attributes": {
            "NORMAL": 5,
            "POSITION": 4,
            "TEXCOORD_0": 6
          },
          "indices": 7,
          "material": 2,
          "mode": 4
        }
      ]
    },
    {
      "name": "Object_2",
      "primitives": [
        {
          "attributes": {
            "NORMAL": 9,
            "POSITION": 8,
            "TEXCOORD_0": 10
          },
          "indices": 11,
          "material": 3,
          "mode": 4
        }
      ]
    },
    {
      "name": "Object_3",
      "primitives": [
        {
          "attributes": {
            "NORMAL": 13,
            "POSITION": 12,
            "TEXCOORD_0": 14
          },
          "indices": 15,
          "material": 4,
          "mode": 4
        }
      ]
    },
    {
      "name": "Object_4",
      "primitives": [
        {
          "attributes": {
            "NORMAL": 17,
            "POSITION": 16,
            "TEXCOORD_0": 18
          },
          "indices": 19,
          "material": 5,
          "mode": 4
        }
      ]
    },
    {
      "name": "Object_5",
      "primitives": [
        {
          "attributes": {
            "NORMAL": 21,
            "POSITION": 20,
            "TEXCOORD_0": 22
          },
          "indices": 23,
          "material": 6,
          "mode": 4
        }
      ]
    },
    {
      "name": "Object_6",
      "primitives": [
        {
          "attributes": {
            "NORMAL": 25,
            "POSITION": 24,
            "TEXCOORD_0": 26
          },
          "indices": 27,
          "material": 7,
          "mode": 4
        }
      ]
    },
    {
      "name": "Object_7",
      "primitives": [
        {
          "attributes": {
            "NORMAL": 29,
            "POSITION": 28,
            "TEXCOORD_0": 30
          },
          "indices": 31,
          "material": 8,
          "mode": 4
        }
      ]
    },
    {
      "name": "Object_8",
      "primitives": [
        {
          "attributes": {
            "NORMAL": 33,
            "POSITION": 32,
            "TEXCOORD_0": 34
          },
          "indices": 35,
          "material": 9,
          "mode": 4
        }
      ]
    },
    {
      "name": "Object_9",
      "primitives": [
        {
          "attributes": {
            "NORMAL": 37,
            "POSITION": 36,
            "TEXCOORD_0": 38
          },
          "indices": 39,
          "material": 0,
          "mode": 4
        }
      ]
    }
  ],
  "nodes": [
    {
      "children": [
        1
      ],
      "matrix": [
        0.9440233111381531,
        0.0,
        0.0,
        0.0,
        0.0,
        2.096152831616911e-16,
        -0.9440233111381531,
        0.0,
        0.0,
        0.9440233111381531,
        2.096152831616911e-16,
        0.0,
        0.0,
        0.0,
        0.0,
        1.0
      ],
      "name": "Sketchfab_model"
    },
    {
      "children": [
        2
      ],
      "name": "root"
    },
    {
      "children": [
        3
      ],
      "matrix": [
        1.0,
        0.0,
        0.0,
        0.0,
        0.0,
        2.220446049250313e-16,
        1.0,
        0.0,
        0.0,
        -1.0,
        2.220446049250313e-16,
        0.0,
        0.0,
        0.0,
        0.0,
        1.0
      ],
      "name": "GLTF_SceneRootNode"
    },
    {
      "children": [
        4,
        5,
        6,
        7,
        8,
        9,
        10,
        11,
        12,
        13
      ],
      "matrix": [
        1.0,
        0.0,
        0.0,
        0.0,
        0.0,
        1.0,
        0.0,
        0.0,
        0.0,
        0.0,
        1.0,
        0.0,
        -0.036925315856933594,
        -0.028901100158691406,
        -0.09369206428527832,
        1.0
      ],
      "name": "Cube_33"
    },
    {
      "mesh": 0,
      "name": "Object_4"
    },
    {
      "mesh": 1,
      "name": "Object_5"
    },
    {
      "mesh": 2,
      "name": "Object_6"
    },
    {
      "mesh": 3,
      "name": "Object_7"
    },
    {
      "mesh": 4,
      "name": "Object_8"
    },
    {
      "mesh": 5,
      "name": "Object_9"
    },
    {
      "mesh": 6,
      "name": "Object_10"
    },
    {
      "mesh": 7,
      "name": "Object_11"
    },
    {
      "mesh": 8,
      "name": "Object_12"
    },
    {
      "mesh": 9,
      "name": "Object_13"
    }
  ],
  "scene": 0,
  "scenes": [
    {
      "name": "Sketchfab_Scene",
      "nodes": [
        0
      ]
    }
  ]
}
